<mxfile host="app.diagrams.net" modified="2020-09-28T09:16:49.167Z" agent="5.0 (X11; Linux x86_64) AppleWebKit/537.36 (KHTML, like Gecko) Chrome/85.0.4183.121 Safari/537.36" etag="2mrz-DuK1yrfNRsIQ0IA" version="13.7.3" type="github">
  <diagram id="u_i7hLlNtRJB0OtnpDT0" name="Page-1">
    <mxGraphModel dx="1393" dy="807" grid="1" gridSize="10" guides="1" tooltips="1" connect="1" arrows="1" fold="1" page="1" pageScale="1" pageWidth="850" pageHeight="1100" math="0" shadow="0">
      <root>
        <mxCell id="0" />
        <mxCell id="1" parent="0" />
        <mxCell id="mGd1n2_6gJl6zBXqxpwN-4" value="User" style="text;html=1;align=center;verticalAlign=middle;resizable=0;points=[];autosize=1;" vertex="1" parent="1">
          <mxGeometry x="360" y="110" width="40" height="20" as="geometry" />
        </mxCell>
        <mxCell id="mGd1n2_6gJl6zBXqxpwN-6" value="Hardware" style="text;html=1;align=center;verticalAlign=middle;resizable=0;points=[];autosize=1;" vertex="1" parent="1">
          <mxGeometry x="640" y="110" width="70" height="20" as="geometry" />
        </mxCell>
        <mxCell id="mGd1n2_6gJl6zBXqxpwN-7" value="Sever logic processing&lt;br&gt;(Backend)" style="text;html=1;align=center;verticalAlign=middle;resizable=0;points=[];autosize=1;" vertex="1" parent="1">
          <mxGeometry x="800" y="105" width="140" height="30" as="geometry" />
        </mxCell>
        <mxCell id="mGd1n2_6gJl6zBXqxpwN-8" value="Google Firebase" style="text;html=1;align=center;verticalAlign=middle;resizable=0;points=[];autosize=1;" vertex="1" parent="1">
          <mxGeometry x="1040" y="110" width="100" height="20" as="geometry" />
        </mxCell>
        <mxCell id="mGd1n2_6gJl6zBXqxpwN-9" value="Application&lt;br&gt;" style="text;html=1;align=center;verticalAlign=middle;resizable=0;points=[];autosize=1;" vertex="1" parent="1">
          <mxGeometry x="480" y="110" width="70" height="20" as="geometry" />
        </mxCell>
        <mxCell id="mGd1n2_6gJl6zBXqxpwN-11" value="" style="ellipse;html=1;shape=startState;fillColor=#000000;strokeColor=#ff0000;" vertex="1" parent="1">
          <mxGeometry x="290" y="140" width="30" height="30" as="geometry" />
        </mxCell>
        <mxCell id="mGd1n2_6gJl6zBXqxpwN-12" value="" style="edgeStyle=orthogonalEdgeStyle;html=1;verticalAlign=bottom;endArrow=open;endSize=8;strokeColor=#ff0000;entryX=0;entryY=0.5;entryDx=0;entryDy=0;" edge="1" parent="1" target="mGd1n2_6gJl6zBXqxpwN-26">
          <mxGeometry relative="1" as="geometry">
            <mxPoint x="380" y="210" as="targetPoint" />
            <mxPoint x="305" y="225" as="sourcePoint" />
            <Array as="points">
              <mxPoint x="305" y="225" />
            </Array>
          </mxGeometry>
        </mxCell>
        <mxCell id="mGd1n2_6gJl6zBXqxpwN-17" value="" style="endArrow=none;dashed=1;html=1;" edge="1" parent="1">
          <mxGeometry width="50" height="50" relative="1" as="geometry">
            <mxPoint x="1160" y="920" as="sourcePoint" />
            <mxPoint x="290" y="100" as="targetPoint" />
            <Array as="points">
              <mxPoint x="1160" y="100" />
            </Array>
          </mxGeometry>
        </mxCell>
        <mxCell id="mGd1n2_6gJl6zBXqxpwN-18" value="" style="endArrow=none;dashed=1;html=1;" edge="1" parent="1">
          <mxGeometry width="50" height="50" relative="1" as="geometry">
            <mxPoint x="1160" y="920" as="sourcePoint" />
            <mxPoint x="290" y="100" as="targetPoint" />
            <Array as="points">
              <mxPoint x="290" y="920" />
            </Array>
          </mxGeometry>
        </mxCell>
        <mxCell id="mGd1n2_6gJl6zBXqxpwN-19" value="" style="endArrow=none;dashed=1;html=1;" edge="1" parent="1">
          <mxGeometry width="50" height="50" relative="1" as="geometry">
            <mxPoint x="440" y="920" as="sourcePoint" />
            <mxPoint x="440" y="100" as="targetPoint" />
          </mxGeometry>
        </mxCell>
        <mxCell id="mGd1n2_6gJl6zBXqxpwN-20" value="" style="endArrow=none;dashed=1;html=1;" edge="1" parent="1">
          <mxGeometry width="50" height="50" relative="1" as="geometry">
            <mxPoint x="600" y="920" as="sourcePoint" />
            <mxPoint x="600" y="100" as="targetPoint" />
          </mxGeometry>
        </mxCell>
        <mxCell id="mGd1n2_6gJl6zBXqxpwN-21" value="" style="endArrow=none;dashed=1;html=1;" edge="1" parent="1">
          <mxGeometry width="50" height="50" relative="1" as="geometry">
            <mxPoint x="760" y="920" as="sourcePoint" />
            <mxPoint x="760" y="100" as="targetPoint" />
          </mxGeometry>
        </mxCell>
        <mxCell id="mGd1n2_6gJl6zBXqxpwN-22" value="" style="endArrow=none;dashed=1;html=1;" edge="1" parent="1">
          <mxGeometry width="50" height="50" relative="1" as="geometry">
            <mxPoint x="1000" y="920" as="sourcePoint" />
            <mxPoint x="1000" y="100" as="targetPoint" />
          </mxGeometry>
        </mxCell>
        <mxCell id="mGd1n2_6gJl6zBXqxpwN-23" value="" style="endArrow=none;dashed=1;html=1;" edge="1" parent="1">
          <mxGeometry width="50" height="50" relative="1" as="geometry">
            <mxPoint x="290" y="140" as="sourcePoint" />
            <mxPoint x="1160" y="140" as="targetPoint" />
          </mxGeometry>
        </mxCell>
        <mxCell id="mGd1n2_6gJl6zBXqxpwN-26" value="Login" style="rounded=1;whiteSpace=wrap;html=1;arcSize=40;fontColor=#000000;fillColor=#ffffc0;strokeColor=#ff0000;" vertex="1" parent="1">
          <mxGeometry x="330" y="210" width="100" height="30" as="geometry" />
        </mxCell>
        <mxCell id="mGd1n2_6gJl6zBXqxpwN-27" value="" style="edgeStyle=orthogonalEdgeStyle;html=1;verticalAlign=bottom;endArrow=open;endSize=8;strokeColor=#ff0000;entryX=0;entryY=0.5;entryDx=0;entryDy=0;" edge="1" source="mGd1n2_6gJl6zBXqxpwN-26" parent="1" target="mGd1n2_6gJl6zBXqxpwN-82">
          <mxGeometry relative="1" as="geometry">
            <mxPoint x="480" y="225" as="targetPoint" />
            <Array as="points" />
          </mxGeometry>
        </mxCell>
        <mxCell id="mGd1n2_6gJl6zBXqxpwN-30" value="Enter time" style="rounded=1;whiteSpace=wrap;html=1;arcSize=40;fontColor=#000000;fillColor=#ffffc0;strokeColor=#ff0000;" vertex="1" parent="1">
          <mxGeometry x="330" y="310" width="100" height="30" as="geometry" />
        </mxCell>
        <mxCell id="mGd1n2_6gJl6zBXqxpwN-31" value="" style="edgeStyle=orthogonalEdgeStyle;html=1;verticalAlign=bottom;endArrow=open;endSize=8;strokeColor=#ff0000;entryX=0;entryY=0.5;entryDx=0;entryDy=0;entryPerimeter=0;" edge="1" source="mGd1n2_6gJl6zBXqxpwN-30" parent="1" target="mGd1n2_6gJl6zBXqxpwN-44">
          <mxGeometry relative="1" as="geometry">
            <mxPoint x="820" y="325" as="targetPoint" />
          </mxGeometry>
        </mxCell>
        <mxCell id="mGd1n2_6gJl6zBXqxpwN-32" value="Show location available" style="rounded=1;whiteSpace=wrap;html=1;arcSize=40;fontColor=#000000;fillColor=#ffffc0;strokeColor=#ff0000;" vertex="1" parent="1">
          <mxGeometry x="470" y="360" width="100" height="30" as="geometry" />
        </mxCell>
        <mxCell id="mGd1n2_6gJl6zBXqxpwN-33" value="" style="edgeStyle=orthogonalEdgeStyle;html=1;verticalAlign=bottom;endArrow=open;endSize=8;strokeColor=#ff0000;entryX=0.5;entryY=0;entryDx=0;entryDy=0;" edge="1" source="mGd1n2_6gJl6zBXqxpwN-32" parent="1" target="mGd1n2_6gJl6zBXqxpwN-36">
          <mxGeometry relative="1" as="geometry">
            <mxPoint x="380" y="420" as="targetPoint" />
            <Array as="points">
              <mxPoint x="380" y="375" />
            </Array>
          </mxGeometry>
        </mxCell>
        <mxCell id="mGd1n2_6gJl6zBXqxpwN-36" value="Choose location" style="rounded=1;whiteSpace=wrap;html=1;arcSize=40;fontColor=#000000;fillColor=#ffffc0;strokeColor=#ff0000;" vertex="1" parent="1">
          <mxGeometry x="330" y="410" width="100" height="30" as="geometry" />
        </mxCell>
        <mxCell id="mGd1n2_6gJl6zBXqxpwN-39" value="Payment &amp;amp; Confirm" style="rounded=1;whiteSpace=wrap;html=1;arcSize=40;fontColor=#000000;fillColor=#ffffc0;strokeColor=#ff0000;" vertex="1" parent="1">
          <mxGeometry x="470" y="410" width="100" height="30" as="geometry" />
        </mxCell>
        <mxCell id="mGd1n2_6gJl6zBXqxpwN-42" style="edgeStyle=none;rounded=0;orthogonalLoop=1;jettySize=auto;html=1;exitX=0.5;exitY=1;exitDx=0;exitDy=0;" edge="1" parent="1">
          <mxGeometry relative="1" as="geometry">
            <mxPoint x="870" y="340" as="sourcePoint" />
            <mxPoint x="870" y="340" as="targetPoint" />
          </mxGeometry>
        </mxCell>
        <mxCell id="mGd1n2_6gJl6zBXqxpwN-43" value="Data realtime" style="rounded=1;whiteSpace=wrap;html=1;arcSize=40;fontColor=#000000;fillColor=#ffffc0;strokeColor=#ff0000;" vertex="1" parent="1">
          <mxGeometry x="1030" y="310" width="100" height="30" as="geometry" />
        </mxCell>
        <mxCell id="mGd1n2_6gJl6zBXqxpwN-44" value="" style="shape=line;html=1;strokeWidth=6;strokeColor=#ff0000;" vertex="1" parent="1">
          <mxGeometry x="780" y="320" width="200" height="10" as="geometry" />
        </mxCell>
        <mxCell id="mGd1n2_6gJl6zBXqxpwN-45" value="" style="edgeStyle=orthogonalEdgeStyle;html=1;verticalAlign=bottom;endArrow=open;endSize=8;strokeColor=#ff0000;exitX=0;exitY=0.5;exitDx=0;exitDy=0;entryX=1;entryY=0.5;entryDx=0;entryDy=0;entryPerimeter=0;" edge="1" source="mGd1n2_6gJl6zBXqxpwN-43" parent="1" target="mGd1n2_6gJl6zBXqxpwN-44">
          <mxGeometry relative="1" as="geometry">
            <mxPoint x="890" y="400" as="targetPoint" />
            <mxPoint x="950" y="340" as="sourcePoint" />
          </mxGeometry>
        </mxCell>
        <mxCell id="mGd1n2_6gJl6zBXqxpwN-50" value="Processing" style="text;html=1;align=center;verticalAlign=middle;resizable=0;points=[];autosize=1;" vertex="1" parent="1">
          <mxGeometry x="845" y="300" width="70" height="20" as="geometry" />
        </mxCell>
        <mxCell id="mGd1n2_6gJl6zBXqxpwN-51" style="edgeStyle=none;rounded=0;orthogonalLoop=1;jettySize=auto;html=1;exitX=0.5;exitY=1;exitDx=0;exitDy=0;" edge="1" parent="1" source="mGd1n2_6gJl6zBXqxpwN-39" target="mGd1n2_6gJl6zBXqxpwN-39">
          <mxGeometry relative="1" as="geometry" />
        </mxCell>
        <mxCell id="mGd1n2_6gJl6zBXqxpwN-53" value="" style="edgeStyle=orthogonalEdgeStyle;html=1;verticalAlign=bottom;endArrow=open;endSize=8;strokeColor=#ff0000;entryX=0;entryY=0.5;entryDx=0;entryDy=0;" edge="1" parent="1" target="mGd1n2_6gJl6zBXqxpwN-55">
          <mxGeometry relative="1" as="geometry">
            <mxPoint x="920" y="424.5799999999999" as="targetPoint" />
            <mxPoint x="569.9999999999999" y="424.5799999999999" as="sourcePoint" />
          </mxGeometry>
        </mxCell>
        <mxCell id="mGd1n2_6gJl6zBXqxpwN-54" value="" style="edgeStyle=orthogonalEdgeStyle;html=1;verticalAlign=bottom;endArrow=open;endSize=8;strokeColor=#ff0000;exitX=1;exitY=0.5;exitDx=0;exitDy=0;entryX=0;entryY=0.5;entryDx=0;entryDy=0;" edge="1" parent="1" source="mGd1n2_6gJl6zBXqxpwN-36" target="mGd1n2_6gJl6zBXqxpwN-39">
          <mxGeometry relative="1" as="geometry">
            <mxPoint x="389.6300000000001" y="479.9999999999999" as="targetPoint" />
            <mxPoint x="389.65857142857135" y="449.9999999999999" as="sourcePoint" />
            <Array as="points" />
          </mxGeometry>
        </mxCell>
        <mxCell id="mGd1n2_6gJl6zBXqxpwN-55" value="Save user data" style="rounded=1;whiteSpace=wrap;html=1;arcSize=40;fontColor=#000000;fillColor=#ffffc0;strokeColor=#ff0000;" vertex="1" parent="1">
          <mxGeometry x="1030" y="410" width="100" height="30" as="geometry" />
        </mxCell>
        <mxCell id="mGd1n2_6gJl6zBXqxpwN-56" value="" style="edgeStyle=orthogonalEdgeStyle;html=1;verticalAlign=bottom;endArrow=open;endSize=8;strokeColor=#ff0000;exitX=0.5;exitY=1;exitDx=0;exitDy=0;" edge="1" parent="1" source="mGd1n2_6gJl6zBXqxpwN-11">
          <mxGeometry relative="1" as="geometry">
            <mxPoint x="305" y="830" as="targetPoint" />
            <mxPoint x="310" y="240" as="sourcePoint" />
            <Array as="points">
              <mxPoint x="305" y="475" />
            </Array>
          </mxGeometry>
        </mxCell>
        <mxCell id="mGd1n2_6gJl6zBXqxpwN-57" value="Active sensor in" style="rounded=1;whiteSpace=wrap;html=1;arcSize=40;fontColor=#000000;fillColor=#ffffc0;strokeColor=#ff0000;" vertex="1" parent="1">
          <mxGeometry x="320" y="760" width="100" height="30" as="geometry" />
        </mxCell>
        <mxCell id="mGd1n2_6gJl6zBXqxpwN-58" value="Active camera &amp;amp; Capture" style="rounded=1;whiteSpace=wrap;html=1;arcSize=40;fontColor=#000000;fillColor=#ffffc0;strokeColor=#ff0000;" vertex="1" parent="1">
          <mxGeometry x="620" y="760" width="100" height="30" as="geometry" />
        </mxCell>
        <mxCell id="mGd1n2_6gJl6zBXqxpwN-59" value="Database" style="rounded=1;whiteSpace=wrap;html=1;arcSize=40;fontColor=#000000;fillColor=#ffffc0;strokeColor=#ff0000;" vertex="1" parent="1">
          <mxGeometry x="1030" y="760" width="100" height="30" as="geometry" />
        </mxCell>
        <mxCell id="mGd1n2_6gJl6zBXqxpwN-60" value="" style="shape=line;html=1;strokeWidth=6;strokeColor=#ff0000;" vertex="1" parent="1">
          <mxGeometry x="770" y="770" width="200" height="10" as="geometry" />
        </mxCell>
        <mxCell id="mGd1n2_6gJl6zBXqxpwN-62" value="" style="edgeStyle=orthogonalEdgeStyle;html=1;verticalAlign=bottom;endArrow=open;endSize=8;strokeColor=#ff0000;exitX=0;exitY=0.5;exitDx=0;exitDy=0;entryX=1;entryY=0.5;entryDx=0;entryDy=0;entryPerimeter=0;" edge="1" parent="1" source="mGd1n2_6gJl6zBXqxpwN-59">
          <mxGeometry relative="1" as="geometry">
            <mxPoint x="969.9999999999998" y="774.66" as="targetPoint" />
            <mxPoint x="1020" y="774.66" as="sourcePoint" />
          </mxGeometry>
        </mxCell>
        <mxCell id="mGd1n2_6gJl6zBXqxpwN-63" value="" style="edgeStyle=orthogonalEdgeStyle;html=1;verticalAlign=bottom;endArrow=open;endSize=8;strokeColor=#ff0000;exitX=1;exitY=0.5;exitDx=0;exitDy=0;entryX=0;entryY=0.5;entryDx=0;entryDy=0;entryPerimeter=0;" edge="1" parent="1" target="mGd1n2_6gJl6zBXqxpwN-60">
          <mxGeometry relative="1" as="geometry">
            <mxPoint x="759.9999999999999" y="774.66" as="targetPoint" />
            <mxPoint x="719.9999999999999" y="774.66" as="sourcePoint" />
            <Array as="points" />
          </mxGeometry>
        </mxCell>
        <mxCell id="mGd1n2_6gJl6zBXqxpwN-64" value="" style="edgeStyle=orthogonalEdgeStyle;html=1;verticalAlign=bottom;endArrow=open;endSize=8;strokeColor=#ff0000;exitX=1;exitY=0.5;exitDx=0;exitDy=0;entryX=0;entryY=0.5;entryDx=0;entryDy=0;" edge="1" parent="1" target="mGd1n2_6gJl6zBXqxpwN-58">
          <mxGeometry relative="1" as="geometry">
            <mxPoint x="459.9999999999999" y="774.66" as="targetPoint" />
            <mxPoint x="419.9999999999999" y="774.66" as="sourcePoint" />
            <Array as="points" />
          </mxGeometry>
        </mxCell>
        <mxCell id="mGd1n2_6gJl6zBXqxpwN-65" value="" style="edgeStyle=orthogonalEdgeStyle;html=1;verticalAlign=bottom;endArrow=open;endSize=8;strokeColor=#ff0000;entryX=1;entryY=0.5;entryDx=0;entryDy=0;" edge="1" parent="1" source="mGd1n2_6gJl6zBXqxpwN-44" target="mGd1n2_6gJl6zBXqxpwN-32">
          <mxGeometry relative="1" as="geometry">
            <mxPoint x="790" y="335" as="targetPoint" />
            <mxPoint x="880" y="340" as="sourcePoint" />
            <Array as="points">
              <mxPoint x="880" y="375" />
            </Array>
          </mxGeometry>
        </mxCell>
        <mxCell id="mGd1n2_6gJl6zBXqxpwN-69" value="Compare" style="rhombus;whiteSpace=wrap;html=1;fillColor=#ffffc0;strokeColor=#ff0000;" vertex="1" parent="1">
          <mxGeometry x="830" y="800" width="80" height="40" as="geometry" />
        </mxCell>
        <mxCell id="mGd1n2_6gJl6zBXqxpwN-70" value="" style="edgeStyle=orthogonalEdgeStyle;html=1;align=left;verticalAlign=bottom;endArrow=open;endSize=8;strokeColor=#ff0000;entryX=1;entryY=0.5;entryDx=0;entryDy=0;" edge="1" source="mGd1n2_6gJl6zBXqxpwN-69" parent="1" target="mGd1n2_6gJl6zBXqxpwN-76">
          <mxGeometry x="-1" relative="1" as="geometry">
            <mxPoint x="760" y="870" as="targetPoint" />
            <Array as="points">
              <mxPoint x="870" y="875" />
            </Array>
          </mxGeometry>
        </mxCell>
        <mxCell id="mGd1n2_6gJl6zBXqxpwN-71" value="" style="edgeStyle=orthogonalEdgeStyle;html=1;align=left;verticalAlign=top;endArrow=open;endSize=8;strokeColor=#ff0000;exitX=0;exitY=0.5;exitDx=0;exitDy=0;entryX=1;entryY=0.5;entryDx=0;entryDy=0;" edge="1" source="mGd1n2_6gJl6zBXqxpwN-69" parent="1" target="mGd1n2_6gJl6zBXqxpwN-75">
          <mxGeometry x="-0.1667" y="10" relative="1" as="geometry">
            <mxPoint x="710" y="820" as="targetPoint" />
            <mxPoint as="offset" />
          </mxGeometry>
        </mxCell>
        <mxCell id="mGd1n2_6gJl6zBXqxpwN-72" value="" style="edgeStyle=orthogonalEdgeStyle;html=1;verticalAlign=bottom;endArrow=open;endSize=8;strokeColor=#ff0000;" edge="1" parent="1">
          <mxGeometry relative="1" as="geometry">
            <mxPoint x="870" y="800" as="targetPoint" />
            <mxPoint x="869.6555172413794" y="780" as="sourcePoint" />
            <Array as="points">
              <mxPoint x="869.69" y="800" />
              <mxPoint x="869.69" y="800" />
            </Array>
          </mxGeometry>
        </mxCell>
        <mxCell id="mGd1n2_6gJl6zBXqxpwN-73" value="Validate" style="text;html=1;align=center;verticalAlign=middle;resizable=0;points=[];autosize=1;" vertex="1" parent="1">
          <mxGeometry x="760" y="800" width="60" height="20" as="geometry" />
        </mxCell>
        <mxCell id="mGd1n2_6gJl6zBXqxpwN-74" value="Not validate" style="text;html=1;align=center;verticalAlign=middle;resizable=0;points=[];autosize=1;" vertex="1" parent="1">
          <mxGeometry x="750" y="850" width="80" height="20" as="geometry" />
        </mxCell>
        <mxCell id="mGd1n2_6gJl6zBXqxpwN-75" value="Active Servo Motor" style="rounded=1;whiteSpace=wrap;html=1;arcSize=40;fontColor=#000000;fillColor=#ffffc0;strokeColor=#ff0000;" vertex="1" parent="1">
          <mxGeometry x="620" y="805" width="100" height="30" as="geometry" />
        </mxCell>
        <mxCell id="mGd1n2_6gJl6zBXqxpwN-76" value="Do nothing" style="rounded=1;whiteSpace=wrap;html=1;arcSize=40;fontColor=#000000;fillColor=#ffffc0;strokeColor=#ff0000;" vertex="1" parent="1">
          <mxGeometry x="620" y="860" width="100" height="30" as="geometry" />
        </mxCell>
        <mxCell id="mGd1n2_6gJl6zBXqxpwN-77" value="License plate &amp;amp; Time data" style="text;html=1;align=center;verticalAlign=middle;resizable=0;points=[];autosize=1;" vertex="1" parent="1">
          <mxGeometry x="795" y="750" width="150" height="20" as="geometry" />
        </mxCell>
        <mxCell id="mGd1n2_6gJl6zBXqxpwN-80" value="Booking time request" style="rounded=1;whiteSpace=wrap;html=1;arcSize=40;fontColor=#000000;fillColor=#ffffc0;strokeColor=#ff0000;" vertex="1" parent="1">
          <mxGeometry x="330" y="260" width="100" height="30" as="geometry" />
        </mxCell>
        <mxCell id="mGd1n2_6gJl6zBXqxpwN-81" value="" style="edgeStyle=orthogonalEdgeStyle;html=1;verticalAlign=bottom;endArrow=open;endSize=8;strokeColor=#ff0000;" edge="1" parent="1">
          <mxGeometry relative="1" as="geometry">
            <mxPoint x="379.8" y="310" as="targetPoint" />
            <mxPoint x="379.8" y="290" as="sourcePoint" />
            <Array as="points" />
          </mxGeometry>
        </mxCell>
        <mxCell id="mGd1n2_6gJl6zBXqxpwN-82" value="Show options" style="rounded=1;whiteSpace=wrap;html=1;arcSize=40;fontColor=#000000;fillColor=#ffffc0;strokeColor=#ff0000;" vertex="1" parent="1">
          <mxGeometry x="470" y="210" width="100" height="30" as="geometry" />
        </mxCell>
        <mxCell id="mGd1n2_6gJl6zBXqxpwN-84" value="" style="edgeStyle=orthogonalEdgeStyle;html=1;verticalAlign=bottom;endArrow=open;endSize=8;strokeColor=#ff0000;entryX=0;entryY=0.5;entryDx=0;entryDy=0;" edge="1" parent="1">
          <mxGeometry relative="1" as="geometry">
            <mxPoint x="330" y="274.65999999999997" as="targetPoint" />
            <mxPoint x="305" y="274.65999999999997" as="sourcePoint" />
            <Array as="points">
              <mxPoint x="305" y="274.65999999999997" />
            </Array>
          </mxGeometry>
        </mxCell>
        <mxCell id="mGd1n2_6gJl6zBXqxpwN-85" value="Booking location request" style="rounded=1;whiteSpace=wrap;html=1;arcSize=40;fontColor=#000000;fillColor=#ffffc0;strokeColor=#ff0000;" vertex="1" parent="1">
          <mxGeometry x="330" y="490" width="100" height="30" as="geometry" />
        </mxCell>
        <mxCell id="mGd1n2_6gJl6zBXqxpwN-86" value="" style="edgeStyle=orthogonalEdgeStyle;html=1;verticalAlign=bottom;endArrow=open;endSize=8;strokeColor=#ff0000;entryX=0;entryY=0.5;entryDx=0;entryDy=0;" edge="1" parent="1">
          <mxGeometry relative="1" as="geometry">
            <mxPoint x="330" y="504.65999999999997" as="targetPoint" />
            <mxPoint x="305" y="504.65999999999997" as="sourcePoint" />
            <Array as="points">
              <mxPoint x="305" y="504.65999999999997" />
            </Array>
          </mxGeometry>
        </mxCell>
        <mxCell id="mGd1n2_6gJl6zBXqxpwN-87" value="Choose location" style="rounded=1;whiteSpace=wrap;html=1;arcSize=40;fontColor=#000000;fillColor=#ffffc0;strokeColor=#ff0000;" vertex="1" parent="1">
          <mxGeometry x="330" y="540" width="100" height="30" as="geometry" />
        </mxCell>
        <mxCell id="mGd1n2_6gJl6zBXqxpwN-88" value="" style="edgeStyle=orthogonalEdgeStyle;html=1;verticalAlign=bottom;endArrow=open;endSize=8;strokeColor=#ff0000;" edge="1" parent="1">
          <mxGeometry relative="1" as="geometry">
            <mxPoint x="379.79999999999995" y="539.9999999999999" as="targetPoint" />
            <mxPoint x="379.79999999999995" y="519.9999999999999" as="sourcePoint" />
            <Array as="points" />
          </mxGeometry>
        </mxCell>
        <mxCell id="mGd1n2_6gJl6zBXqxpwN-89" value="Show time available" style="rounded=1;whiteSpace=wrap;html=1;arcSize=40;fontColor=#000000;fillColor=#ffffc0;strokeColor=#ff0000;" vertex="1" parent="1">
          <mxGeometry x="470" y="590" width="100" height="30" as="geometry" />
        </mxCell>
        <mxCell id="mGd1n2_6gJl6zBXqxpwN-90" value="Choose time" style="rounded=1;whiteSpace=wrap;html=1;arcSize=40;fontColor=#000000;fillColor=#ffffc0;strokeColor=#ff0000;" vertex="1" parent="1">
          <mxGeometry x="330" y="640" width="100" height="30" as="geometry" />
        </mxCell>
        <mxCell id="mGd1n2_6gJl6zBXqxpwN-91" value="" style="edgeStyle=orthogonalEdgeStyle;html=1;verticalAlign=bottom;endArrow=open;endSize=8;strokeColor=#ff0000;entryX=0.5;entryY=0;entryDx=0;entryDy=0;exitX=0;exitY=0.5;exitDx=0;exitDy=0;" edge="1" parent="1" source="mGd1n2_6gJl6zBXqxpwN-89" target="mGd1n2_6gJl6zBXqxpwN-90">
          <mxGeometry relative="1" as="geometry">
            <mxPoint x="379.65999999999997" y="639.9999999999998" as="targetPoint" />
            <mxPoint x="379.65999999999997" y="619.9999999999998" as="sourcePoint" />
            <Array as="points" />
          </mxGeometry>
        </mxCell>
        <mxCell id="mGd1n2_6gJl6zBXqxpwN-93" value="Payment &amp;amp; Confirm" style="rounded=1;whiteSpace=wrap;html=1;arcSize=40;fontColor=#000000;fillColor=#ffffc0;strokeColor=#ff0000;" vertex="1" parent="1">
          <mxGeometry x="470" y="640" width="100" height="30" as="geometry" />
        </mxCell>
        <mxCell id="mGd1n2_6gJl6zBXqxpwN-94" value="" style="edgeStyle=orthogonalEdgeStyle;html=1;verticalAlign=bottom;endArrow=open;endSize=8;strokeColor=#ff0000;exitX=1;exitY=0.5;exitDx=0;exitDy=0;entryX=0;entryY=0.5;entryDx=0;entryDy=0;" edge="1" parent="1" target="mGd1n2_6gJl6zBXqxpwN-93">
          <mxGeometry relative="1" as="geometry">
            <mxPoint x="389.6300000000001" y="709.9999999999999" as="targetPoint" />
            <mxPoint x="430" y="655" as="sourcePoint" />
            <Array as="points" />
          </mxGeometry>
        </mxCell>
        <mxCell id="mGd1n2_6gJl6zBXqxpwN-97" value="" style="edgeStyle=orthogonalEdgeStyle;html=1;verticalAlign=bottom;endArrow=open;endSize=8;strokeColor=#ff0000;entryX=0;entryY=0.5;entryDx=0;entryDy=0;entryPerimeter=0;" edge="1" parent="1" target="mGd1n2_6gJl6zBXqxpwN-98">
          <mxGeometry relative="1" as="geometry">
            <mxPoint x="820" y="555" as="targetPoint" />
            <mxPoint x="430" y="554.9999999999999" as="sourcePoint" />
          </mxGeometry>
        </mxCell>
        <mxCell id="mGd1n2_6gJl6zBXqxpwN-98" value="" style="shape=line;html=1;strokeWidth=6;strokeColor=#ff0000;" vertex="1" parent="1">
          <mxGeometry x="780" y="550" width="200" height="10" as="geometry" />
        </mxCell>
        <mxCell id="mGd1n2_6gJl6zBXqxpwN-99" value="" style="edgeStyle=orthogonalEdgeStyle;html=1;verticalAlign=bottom;endArrow=open;endSize=8;strokeColor=#ff0000;exitX=0;exitY=0.5;exitDx=0;exitDy=0;entryX=1;entryY=0.5;entryDx=0;entryDy=0;entryPerimeter=0;" edge="1" parent="1" target="mGd1n2_6gJl6zBXqxpwN-98">
          <mxGeometry relative="1" as="geometry">
            <mxPoint x="890" y="630" as="targetPoint" />
            <mxPoint x="1030.0000000000002" y="554.9999999999999" as="sourcePoint" />
          </mxGeometry>
        </mxCell>
        <mxCell id="mGd1n2_6gJl6zBXqxpwN-100" value="Data realtime" style="rounded=1;whiteSpace=wrap;html=1;arcSize=40;fontColor=#000000;fillColor=#ffffc0;strokeColor=#ff0000;" vertex="1" parent="1">
          <mxGeometry x="1030" y="540" width="100" height="30" as="geometry" />
        </mxCell>
        <mxCell id="mGd1n2_6gJl6zBXqxpwN-101" value="" style="edgeStyle=orthogonalEdgeStyle;html=1;verticalAlign=bottom;endArrow=open;endSize=8;strokeColor=#ff0000;entryX=1;entryY=0.5;entryDx=0;entryDy=0;" edge="1" parent="1">
          <mxGeometry relative="1" as="geometry">
            <mxPoint x="570" y="604.9999999999999" as="targetPoint" />
            <mxPoint x="880.0000000000002" y="559.9999999999999" as="sourcePoint" />
            <Array as="points">
              <mxPoint x="880" y="605" />
            </Array>
          </mxGeometry>
        </mxCell>
        <mxCell id="mGd1n2_6gJl6zBXqxpwN-102" value="Processing" style="text;html=1;align=center;verticalAlign=middle;resizable=0;points=[];autosize=1;" vertex="1" parent="1">
          <mxGeometry x="845" y="530" width="70" height="20" as="geometry" />
        </mxCell>
        <mxCell id="mGd1n2_6gJl6zBXqxpwN-103" value="" style="edgeStyle=orthogonalEdgeStyle;html=1;verticalAlign=bottom;endArrow=open;endSize=8;strokeColor=#ff0000;entryX=0;entryY=0.5;entryDx=0;entryDy=0;" edge="1" parent="1" target="mGd1n2_6gJl6zBXqxpwN-104">
          <mxGeometry relative="1" as="geometry">
            <mxPoint x="920" y="654.5799999999999" as="targetPoint" />
            <mxPoint x="570" y="654.5799999999999" as="sourcePoint" />
          </mxGeometry>
        </mxCell>
        <mxCell id="mGd1n2_6gJl6zBXqxpwN-104" value="Save user data" style="rounded=1;whiteSpace=wrap;html=1;arcSize=40;fontColor=#000000;fillColor=#ffffc0;strokeColor=#ff0000;" vertex="1" parent="1">
          <mxGeometry x="1030" y="640" width="100" height="30" as="geometry" />
        </mxCell>
      </root>
    </mxGraphModel>
  </diagram>
</mxfile>
